# xmcd
#
# Track frame offsets: 
#        150
#        17468
#        30367
#        44870
#        61135
#        73858
#        89059
#        109243
#        124183
#        141276
#        160579
#        178884
#        196672
#        209301
#        224956
#
# Disc length: 3195 seconds
#
# Revision: 0
# Processed by: cddbd v1.5.2PL0 Copyright (c) Steve Scherf et al.
# Submitted via: ExactAudioCopy v0.99pb4
#
DISCID=e50c790f
DTITLE=Robin Dean Salmon - Come On Home
DYEAR=2008
DGENRE=Country Rock
TTITLE0=Ready Now
TTITLE1=Arizona Rain
TTITLE2=You're The One
TTITLE3=Come On Home
TTITLE4=Last Train
TTITLE5=I Feel Nothing
TTITLE6=Never Comin Down
TTITLE7=Just Matter Of Time
TTITLE8=America
TTITLE9=Chimayo
TTITLE10=Tuesday Afternoon
TTITLE11=One Beliver
TTITLE12=I Won't Sing A Song About Love
TTITLE13=Love Came Back
TTITLE14=Daddy Is A Short Man
EXTD=
EXTT0=
EXTT1=
EXTT2=
EXTT3=
EXTT4=
EXTT5=
EXTT6=
EXTT7=
EXTT8=
EXTT9=
EXTT10=
EXTT11=
EXTT12=
EXTT13=
EXTT14=
PLAYORDER=
